# xmcd
#
# Track frame offsets:
#	150
#	18406
#	59442
#	78465
#	87374
#	109490
#	143134
#	163823
#	207960
#	232683
#	255704
#	274787
#	296195
#
# Disc length: 4184 seconds
#
# Revision: 0
# Processed by: cddbd v1.5.2PL0 Copyright (c) Steve Scherf et al.
# Submitted via: dBpowerAMP V4.0
#
DISCID=bd10560d
DTITLE=Mariah Carey - Big in Japan CD2
DYEAR=1900
DGENRE=
TTITLE0=Elite Force
TTITLE1=Honey
TTITLE2=Vision of Love
TTITLE3=Band Introducing
TTITLE4=Ain't Nobody
TTITLE5=Butterfly
TTITLE6=All I Want for Christmas is You
TTITLE7=Fly Away (Butterfly reprise)
TTITLE8=The Roof (remix Moob Deep)
TTITLE9=One Sweet Day (live)
TTITLE10=Hero (Spanish Version)
TTITLE11=One Sweet Day (A Capella)
TTITLE12=Fantasy (Def Drum Mix)
EXTD=
EXTT0=
EXTT1=
EXTT2=
EXTT3=
EXTT4=
EXTT5=
EXTT6=
EXTT7=
EXTT8=
EXTT9=
EXTT10=
EXTT11=
EXTT12=
PLAYORDER=
